<svg width="34" height="34" viewBox="0 0 34 34" xmlns="http://www.w3.org/2000/svg">
<path d="M16.9992 33.7999C26.277 33.7999 33.7992 26.2778 33.7992 17C33.7992 7.72215 26.277 0.199951 16.9992 0.199951C7.72142 0.199951 0.199219 7.72215 0.199219 17C0.199219 26.2778 7.72142 33.7999 16.9992 33.7999ZM9.00942 16.0102L14.6094 10.4102C14.8824 10.1372 15.2408 9.99995 15.5992 9.99995C15.9576 9.99995 16.316 10.1372 16.589 10.4102C17.1364 10.9576 17.1364 11.8424 16.589 12.3898L13.3788 15.6H23.9992C24.772 15.6 25.3992 16.2258 25.3992 17C25.3992 17.7742 24.772 18.4 23.9992 18.4H13.3788L16.589 21.6101C17.1364 22.1575 17.1364 23.0424 16.589 23.5898C16.0416 24.1372 15.1568 24.1372 14.6094 23.5898L9.00942 17.9897C8.46202 17.4424 8.46202 16.5576 9.00942 16.0102Z" fill="#F0ECDF"/>
</svg>
