<svg width="22" height="18" viewBox="0 0 22 18" fill="none" xmlns="http://www.w3.org/2000/svg">
<path fill-rule="evenodd" clip-rule="evenodd" d="M0.791672 5.70131C0.791672 2.55073 3.55567 0.124878 6.8 0.124878C8.47239 0.124878 9.94399 0.90904 11 1.92368C12.056 0.90904 13.5276 0.124878 15.2 0.124878C18.4443 0.124878 21.2083 2.55073 21.2083 5.70131C21.2083 7.85949 20.288 9.75739 19.0129 11.3617C17.74 12.9632 16.0749 14.3224 14.4807 15.4268C13.8718 15.8487 13.2558 16.2378 12.692 16.525C12.1626 16.7946 11.5539 17.0415 11 17.0415C10.4461 17.0415 9.83741 16.7946 9.30802 16.525C8.74423 16.2378 8.12821 15.8487 7.51929 15.4268C5.92506 14.3224 4.26002 12.9632 2.98713 11.3617C1.71203 9.75739 0.791672 7.85949 0.791672 5.70131ZM6.8 1.87488C4.37422 1.87488 2.54167 3.65883 2.54167 5.70131C2.54167 7.33872 3.23676 8.86321 4.35711 10.2728C5.47967 11.6852 6.99008 12.9313 8.51587 13.9883C9.09323 14.3883 9.63704 14.7286 10.1022 14.9655C10.6018 15.22 10.8911 15.2915 11 15.2915C11.1089 15.2915 11.3983 15.22 11.8978 14.9655C12.363 14.7286 12.9068 14.3883 13.4841 13.9883C15.0099 12.9313 16.5203 11.6852 17.6429 10.2728C18.7633 8.86321 19.4583 7.33872 19.4583 5.70131C19.4583 3.65883 17.6258 1.87488 15.2 1.87488C13.8068 1.87488 12.5059 2.7072 11.6937 3.76362C11.528 3.97903 11.2717 4.10527 11 4.10527C10.7283 4.10527 10.472 3.97903 10.3063 3.76362C9.49408 2.7072 8.19318 1.87488 6.8 1.87488Z" fill="#565661"/>
</svg>
