<svg width="315" height="47" viewBox="0 0 315 47" fill="none" xmlns="http://www.w3.org/2000/svg">
<path d="M59.368 14.0639L61.312 14.0639L63.088 19.8239L65.536 28.0319C66.272 24.4959 66.864 21.7679 67.312 19.8479L68.68 13.8239L70.648 13.8239L66.856 29.9999L64.36 29.9999L62.8 24.8879L60.376 16.7999C59.88 18.6879 59.112 21.3839 58.072 24.8879L56.56 29.9999L54.088 29.9999L49.864 13.8239L51.904 13.8239L53.416 19.8239L55.408 27.9599C56.304 24.6799 57.064 21.9679 57.688 19.8239L59.368 14.0639ZM75.3154 28.2959L82.3954 28.2959L82.3954 29.9999L73.3714 29.9999L73.3714 13.8239L82.2754 13.8239L82.2754 15.5279L75.3154 15.5279L75.3154 21.0719L81.4594 21.0719L81.4594 22.7759L75.3154 22.7759L75.3154 28.2959ZM87.3389 28.3439L91.0109 28.3439C92.0349 28.3439 92.8189 28.1119 93.3629 27.6479C93.9229 27.1679 94.2029 26.4719 94.2029 25.5599C94.2029 24.6479 93.8909 23.9359 93.2669 23.4239C92.6589 22.9119 91.7869 22.6559 90.6509 22.6559L87.3389 22.6559L87.3389 28.3439ZM87.3389 15.4799L87.3389 20.9999L89.9309 20.9999C91.2269 20.9999 92.1869 20.7279 92.8109 20.1839C93.4349 19.6399 93.7469 18.9359 93.7469 18.0719C93.7469 17.3199 93.4509 16.7039 92.8589 16.2239C92.2829 15.7279 91.4189 15.4799 90.2669 15.4799L87.3389 15.4799ZM85.3949 13.8239L90.2669 13.8239C91.9309 13.8239 93.2589 14.2079 94.2509 14.9759C95.2589 15.7439 95.7629 16.7759 95.7629 18.0719C95.7629 18.9999 95.4989 19.8079 94.9709 20.4959C94.4589 21.1679 93.7949 21.5919 92.9789 21.7679C93.8749 21.9119 94.6349 22.3199 95.2589 22.9919C95.8989 23.6479 96.2189 24.5439 96.2189 25.6799C96.2189 26.9759 95.7869 28.0239 94.9229 28.8239C94.0749 29.6079 92.8669 29.9999 91.2989 29.9999L85.3949 29.9999L85.3949 13.8239ZM110.65 14.4719L110.65 16.4639C109.946 16.0959 109.314 15.8319 108.754 15.6719C108.194 15.5119 107.458 15.4319 106.546 15.4319C104.802 15.4319 103.346 16.0239 102.178 17.2079C101.026 18.3919 100.45 19.9359 100.45 21.8399C100.45 23.8239 101.026 25.4079 102.178 26.5919C103.33 27.7759 104.858 28.3679 106.762 28.3679C108.298 28.3679 109.61 27.9599 110.698 27.1439L110.698 29.1839C109.706 29.8559 108.346 30.1919 106.618 30.1919C104.186 30.1919 102.21 29.4479 100.69 27.9599C99.1698 26.4559 98.4098 24.4159 98.4098 21.8399C98.4098 19.4079 99.1778 17.4319 100.714 15.9119C102.266 14.3759 104.21 13.6079 106.546 13.6079C108.226 13.6079 109.594 13.8959 110.65 14.4719ZM116.615 24.0959L122.351 24.0959L122.039 23.1599L119.519 15.3839C119.327 16.0719 118.463 18.6719 116.927 23.1839L116.615 24.0959ZM124.319 29.9999L122.903 25.7519L116.063 25.7519L114.623 29.9999L112.535 29.9999L118.175 13.8239L120.863 13.8239L126.407 29.9999L124.319 29.9999ZM128.938 29.9999L130.114 13.8239L132.586 13.8239L134.722 19.7279L137.314 27.2639C138.242 24.6399 139.154 22.1279 140.05 19.7279L142.282 13.8239L144.754 13.8239L146.17 29.9999L144.226 29.9999L143.674 23.6159L143.098 16.4399C142.25 18.8079 141.378 21.1999 140.482 23.6159L138.226 29.6399L136.378 29.6399L134.242 23.6159L131.794 16.5839C131.794 17.2079 131.642 19.5519 131.338 23.6159L130.882 29.9999L128.938 29.9999ZM164.015 14.4239L164.015 16.4639C163.039 15.8239 161.871 15.5039 160.511 15.5039C159.535 15.5039 158.759 15.7359 158.183 16.1999C157.607 16.6479 157.319 17.2399 157.319 17.9759C157.319 18.3599 157.391 18.7039 157.535 19.0079C157.695 19.3119 157.967 19.5999 158.351 19.8719C158.735 20.1279 159.063 20.3279 159.335 20.4719C159.607 20.5999 160.031 20.7919 160.607 21.0479C161.151 21.2879 161.567 21.4799 161.855 21.6239C162.143 21.7519 162.511 21.9679 162.959 22.2719C163.423 22.5599 163.767 22.8479 163.991 23.1359C164.231 23.4079 164.439 23.7759 164.615 24.2399C164.807 24.6879 164.903 25.1759 164.903 25.7039C164.903 27.1279 164.415 28.2319 163.439 29.0159C162.463 29.7839 161.207 30.1679 159.671 30.1679C157.975 30.1679 156.535 29.8239 155.351 29.1359L155.351 27.0479C156.519 27.9279 157.943 28.3679 159.623 28.3679C160.631 28.3679 161.423 28.1439 161.999 27.6959C162.575 27.2479 162.863 26.5999 162.863 25.7519C162.863 25.3999 162.791 25.0879 162.647 24.8159C162.519 24.5279 162.295 24.2719 161.975 24.0479C161.671 23.8079 161.375 23.6159 161.087 23.4719C160.815 23.3119 160.439 23.1199 159.959 22.8959C159.863 22.8479 159.719 22.7839 159.527 22.7039C158.839 22.3999 158.311 22.1519 157.943 21.9599C157.591 21.7679 157.167 21.4879 156.671 21.1199C156.191 20.7359 155.839 20.2959 155.615 19.7999C155.391 19.3039 155.279 18.7279 155.279 18.0719C155.279 16.6959 155.767 15.6239 156.743 14.8559C157.735 14.0719 158.975 13.6799 160.463 13.6799C161.855 13.6799 163.039 13.9279 164.015 14.4239ZM177.393 13.8239L177.393 15.5279L173.025 15.5279L173.025 29.9999L171.081 29.9999L171.081 15.5279L166.713 15.5279L166.713 13.8239L177.393 13.8239ZM189.571 23.9039L189.571 13.8239L191.515 13.8239L191.515 23.8559C191.515 25.9359 190.987 27.5119 189.931 28.5839C188.891 29.6559 187.435 30.1919 185.563 30.1919C183.723 30.1919 182.283 29.6719 181.243 28.6319C180.203 27.5759 179.683 26.0479 179.683 24.0479L179.683 13.8239L181.627 13.8239L181.627 24.0239C181.627 25.5119 181.979 26.6079 182.683 27.3119C183.403 28.0159 184.363 28.3679 185.563 28.3679C188.235 28.3679 189.571 26.8799 189.571 23.9039ZM197.144 28.2959L200.048 28.2959C202.048 28.2959 203.56 27.6799 204.584 26.4479C205.608 25.1999 206.12 23.6479 206.12 21.7919C206.12 20.0319 205.544 18.5519 204.392 17.3519C203.256 16.1519 201.776 15.5519 199.952 15.5519L197.144 15.5519L197.144 28.2959ZM195.176 13.8239L199.976 13.8239C202.36 13.8239 204.312 14.5679 205.832 16.0559C207.368 17.5279 208.136 19.4399 208.136 21.7919C208.136 24.1279 207.424 26.0799 206 27.6479C204.592 29.2159 202.616 29.9999 200.072 29.9999L195.176 29.9999L195.176 13.8239ZM211.187 29.9999L211.187 13.8239L213.131 13.8239L213.131 29.9999L211.187 29.9999ZM216.277 21.8399C216.277 19.2959 216.925 17.2719 218.221 15.7679C219.533 14.2639 221.301 13.5119 223.525 13.5119C225.797 13.5119 227.573 14.2639 228.853 15.7679C230.149 17.2559 230.797 19.2799 230.797 21.8399C230.797 24.3839 230.141 26.4159 228.829 27.9359C227.533 29.4399 225.773 30.1919 223.549 30.1919C221.357 30.1919 219.597 29.4319 218.269 27.9119C216.941 26.3919 216.277 24.3679 216.277 21.8399ZM218.317 21.8399C218.317 23.8399 218.789 25.4239 219.733 26.5919C220.693 27.7599 221.965 28.3439 223.549 28.3439C225.197 28.3439 226.469 27.7679 227.365 26.6159C228.277 25.4639 228.733 23.8719 228.733 21.8399C228.733 19.8079 228.277 18.2159 227.365 17.0639C226.453 15.9119 225.173 15.3359 223.525 15.3359C221.893 15.3359 220.613 15.9199 219.685 17.0879C218.773 18.2399 218.317 19.8239 218.317 21.8399ZM241.581 28.2959L248.661 28.2959L248.661 29.9999L239.637 29.9999L239.637 13.8239L248.541 13.8239L248.541 15.5279L241.581 15.5279L241.581 21.0719L247.725 21.0719L247.725 22.7759L241.581 22.7759L241.581 28.2959ZM255.957 21.8399L251.037 13.8239L253.317 13.8239L257.037 20.0879C257.101 19.9599 257.733 18.8959 258.933 16.8959C260.133 14.8799 260.741 13.8559 260.757 13.8239L263.061 13.8239L258.165 21.8399L263.589 29.9999L261.309 29.9999L257.085 23.4959C257.069 23.5279 256.413 24.5839 255.117 26.6639C253.821 28.7439 253.133 29.8559 253.053 29.9999L250.749 29.9999L255.957 21.8399ZM268.323 22.3919L270.939 22.3919C272.107 22.3759 273.027 22.0479 273.699 21.4079C274.371 20.7679 274.707 19.9759 274.707 19.0319C274.707 17.9759 274.355 17.1279 273.651 16.4879C272.963 15.8319 271.995 15.4959 270.747 15.4799L268.323 15.4799L268.323 22.3919ZM266.379 13.8239L270.627 13.8239C272.499 13.8239 273.971 14.3119 275.043 15.2879C276.131 16.2479 276.675 17.4959 276.675 19.0319C276.675 20.4719 276.139 21.6719 275.067 22.6319C273.995 23.5759 272.579 24.0479 270.819 24.0479L268.323 24.0479L268.323 29.9999L266.379 29.9999L266.379 13.8239ZM281.401 28.2959L288.481 28.2959L288.481 29.9999L279.457 29.9999L279.457 13.8239L288.361 13.8239L288.361 15.5279L281.401 15.5279L281.401 21.0719L287.545 21.0719L287.545 22.7759L281.401 22.7759L281.401 28.2959ZM293.425 15.5039L293.425 21.9599L295.873 21.9599C296.977 21.9599 297.817 21.6639 298.393 21.0719C298.985 20.4639 299.281 19.6879 299.281 18.7439C299.281 16.5839 298.073 15.5039 295.657 15.5039L293.425 15.5039ZM302.233 29.9999L299.905 29.9999L295.945 23.6159L295.753 23.6159L293.425 23.6159L293.425 29.9999L291.481 29.9999L291.481 13.8239L295.537 13.8239C297.409 13.8239 298.825 14.2639 299.785 15.1439C300.761 16.0239 301.249 17.2399 301.249 18.7919C301.217 19.9119 300.921 20.8639 300.361 21.6479C299.801 22.4319 299.009 22.9839 297.985 23.3039L302.233 29.9999ZM313.893 13.8239L313.893 15.5279L309.525 15.5279L309.525 29.9999L307.581 29.9999L307.581 15.5279L303.213 15.5279L303.213 13.8239L313.893 13.8239Z" fill="#222226"/>
<path d="M23.9489 3.99988C20.2175 3.99988 17.7004 5.84093 16.3929 7.13375C15.0853 5.84093 12.5682 3.99988 8.83678 3.99988C3.69313 3.99988 0 8.43168 -1.62213e-10 13.7463C-2.13634e-10 16.8358 1.30458 20.0283 3.77279 22.9785C6.46999 26.2026 10.5283 29.1697 15.8351 31.7976C16.0112 31.8848 16.202 31.9284 16.3929 31.9284C16.5837 31.9284 16.7745 31.8848 16.9507 31.7976C22.2574 29.1697 26.3157 26.2026 29.0129 22.9785C31.4811 20.0283 32.7857 16.8358 32.7857 13.7463C32.7857 8.43502 29.095 3.99988 23.9489 3.99988ZM27.0672 21.2738C24.6939 24.1107 21.1043 26.7616 16.3929 29.1581C11.6814 26.7616 8.09173 24.1107 5.71848 21.2738C3.62359 18.7697 2.56138 16.2371 2.56138 13.7463C2.56138 9.92371 5.08153 6.62116 8.83678 6.62116C10.6056 6.62116 12.2289 7.15498 13.6615 8.20789C14.7296 8.99289 15.3009 9.79691 15.338 9.84986C15.5745 10.2096 15.966 10.4207 16.3899 10.4231C16.3922 10.4231 16.3943 10.4231 16.3966 10.4231C16.8191 10.4231 17.211 10.2041 17.4498 9.84691C17.4713 9.8146 19.6568 6.62116 23.9489 6.62116C27.7046 6.62116 30.2243 9.92535 30.2243 13.7463C30.2243 16.2371 29.1621 18.7697 27.0672 21.2738Z" fill="#E95BA8"/>
<circle cx="16.3929" cy="17.9642" r="5.46428" fill="#4F484C"/>
<circle cx="17.6072" cy="16.7499" r="1.82143" fill="white"/>
<path opacity="0.4" d="M27.944 35.2436L28.1315 35.3185L28.3334 35.3185C28.9533 35.3185 29.3072 35.7624 29.3072 36.1342C29.3072 36.5059 28.9533 36.9499 28.3334 36.9499L4.45246 36.9499C3.83256 36.9499 3.47865 36.5059 3.47865 36.1342C3.47865 35.7624 3.83256 35.3185 4.45246 35.3185L4.65437 35.3185L4.84189 35.2436L16.3929 30.6305L27.944 35.2436Z" fill="white" stroke="#E95BA8" stroke-width="2.1"/>
</svg>
