<svg width="22" height="18" viewBox="0 0 22 18" fill="none" xmlns="http://www.w3.org/2000/svg">
<path fill-rule="evenodd" clip-rule="evenodd" d="M0.270977 4.74537C-0.0558573 7.78208 -0.0412885 11.2844 0.413506 14.3088C0.665153 15.9822 2.03094 17.2652 3.71685 17.4117L5.47879 17.5649C9.15267 17.8842 12.8473 17.8842 16.5212 17.5649L18.2832 17.4117C19.9691 17.2652 21.3349 15.9822 21.5865 14.3088C22.0413 11.2844 22.0559 7.78228 21.7291 4.74555C21.6868 4.3935 21.6393 4.04192 21.5865 3.69093C21.3349 2.01747 19.9691 0.734551 18.2832 0.587998L16.5212 0.434835C12.8473 0.115471 9.15267 0.115472 5.47879 0.434836L3.71685 0.587998C2.03093 0.734551 0.665153 2.01747 0.413506 3.69093C0.360734 4.04186 0.313224 4.39338 0.270977 4.74537ZM5.63034 2.17826C9.20338 1.86766 12.7966 1.86766 16.3697 2.17826L18.1316 2.33142C19.0117 2.40792 19.7246 3.07761 19.856 3.95116C19.8696 4.04188 19.8829 4.13263 19.8958 4.22343L13.4079 7.82779C11.9104 8.65975 10.0895 8.65975 8.59199 7.82779L2.10423 4.22347C2.11713 4.13266 2.1304 4.04189 2.14405 3.95116C2.27541 3.07761 2.98835 2.40792 3.8684 2.33142L5.63034 2.17826ZM20.1099 6.10639C20.3362 8.7521 20.2516 11.4178 19.856 14.0485C19.7246 14.9221 19.0117 15.5918 18.1316 15.6683L16.3697 15.8214C12.7966 16.132 9.20338 16.132 5.63034 15.8214L3.8684 15.6683C2.98835 15.5918 2.27541 14.9221 2.14405 14.0485C1.74844 11.4178 1.66379 8.75213 1.89009 6.10644L7.74211 9.35756C9.76818 10.4832 12.2318 10.4832 14.2578 9.35756L20.1099 6.10639Z" fill="#565661"/>
</svg>
